<svg width="68" height="68" viewBox="0 0 68 68" fill="none" xmlns="http://www.w3.org/2000/svg">
<path d="M62.5322 1.11004L34.3436 29.2986L6.15504 1.11004C5.47706 0.489632 4.58586 0.154721 3.66708 0.175078C2.74831 0.195436 1.87281 0.569493 1.22298 1.21932C0.573153 1.86915 0.199096 2.74465 0.178738 3.66342C0.158381 4.5822 0.493291 5.4734 1.1137 6.15138L29.288 34.3399L1.10655 62.5214C0.762256 62.8495 0.487029 63.2431 0.297047 63.6791C0.107066 64.1151 0.00616351 64.5847 0.000273651 65.0603C-0.00561621 65.5359 0.0836251 66.0078 0.26275 66.4484C0.441875 66.889 0.707269 67.2893 1.04333 67.6258C1.3794 67.9624 1.77935 68.2283 2.21967 68.4081C2.66 68.5878 3.13182 68.6777 3.6074 68.6725C4.08297 68.6673 4.5527 68.5671 4.98898 68.3777C5.42526 68.1883 5.81928 67.9137 6.14789 67.5698L34.3436 39.3884L62.5322 67.577C63.2101 68.1974 64.1014 68.5323 65.0201 68.512C65.9389 68.4916 66.8144 68.1175 67.4642 67.4677C68.1141 66.8179 68.4881 65.9424 68.5085 65.0236C68.5288 64.1048 68.1939 63.2136 67.5735 62.5357L39.3849 34.3471L67.5735 6.15138C67.9178 5.82326 68.193 5.42963 68.383 4.99362C68.573 4.55761 68.6739 4.08802 68.6798 3.61245C68.6857 3.13689 68.5964 2.66494 68.4173 2.22436C68.2382 1.78378 67.9728 1.38345 67.6367 1.04691C67.3007 0.710368 66.9007 0.444406 66.4604 0.264657C66.0201 0.0849075 65.5482 -0.00500117 65.0727 0.000214599C64.5971 0.00543037 64.1274 0.105666 63.6911 0.295029C63.2548 0.484393 62.8608 0.759062 62.5322 1.10289V1.11004Z" fill="black"/>
</svg>
